# xmcd
#
# Track frame offsets:
#	150
#	25934
#	41911
#	56397
#	71388
#	91233
#	112268
#	127606
#	145540
#	163601
#	185501
#	201817
#	215411
#	231473
#	246962
#	264695
#	281064
#	301986
#	319758
#	339180
#
# Disc length: 4793 seconds
#
# Revision: 4
# Processed by: cddbd v1.5.2PL0 Copyright (c) Steve Scherf et al.
# Submitted via: EasyCDDAExtractor 2010.6.0.0
#
DISCID=2312b714
DTITLE=Various Artist - Ferry Maat's Soulshow Top 100
DYEAR=2008
DGENRE=Soul
TTITLE0=Chaka Khan - I Feel For You
TTITLE1=Chic - Le Freak
TTITLE2=The Whispers - And The Beat Goes On
TTITLE3=Tom Browne - Funkin' For Jamaica
TTITLE4=Rose Royce - RR Express
TTITLE5=BB and Q Band - Starlette
TTITLE6=Tavares - Heaven Must Be Missing An Angel
TTITLE7=Shalamar - I Can Make You Feel good
TTITLE8=Lakeside - Fantastic Voyage
TTITLE9=Sugarhill Gang - Rapper's Delight
TTITLE10=Dayton - The Sound Of Music
TTITLE11=The O'Jays - Backstabbers
TTITLE12=McFadden and Whitehead - Ain't No Stopping Us Now
TTITLE13=Jones Girls - Nights Over Egypt
TTITLE14=Marvin Gaye - Sexual Healing
TTITLE15=George Benson - Never Give Up On A Good Thing
TTITLE16=The Trammps - Love Epidemic
TTITLE17=Detroit Spinners - Working My Way Back To You
TTITLE18=Billy Ocean - Are You Ready
TTITLE19=Billy Paul - Me And Mrs. Jones
EXTD=
EXTT0=
EXTT1=
EXTT2=
EXTT3=
EXTT4=
EXTT5=
EXTT6=
EXTT7=
EXTT8=
EXTT9=
EXTT10=
EXTT11=
EXTT12=
EXTT13=
EXTT14=
EXTT15=
EXTT16=
EXTT17=
EXTT18=
EXTT19=
PLAYORDER=
